<svg version="1.1" xmlns="http://www.w3.org/2000/svg" xmlns:xlink="http://www.w3.org/1999/xlink" width="2400" height="1600"><defs/><g transform="scale(2,2)"><g id="background-4bdc42f6"><rect fill="white" stroke="none" x="0" y="0" width="1200" height="800" class="dcg-svg-background"/></g><g id="background-images-4bdc42f6"/><g id="graphpaper-4bdc42f6"><g id="axis-4bdc42f6"><g><g><path fill="none" stroke="rgb(0,0,0)" class="dcg-svg-tickmark" paint-order="fill stroke markers" d="" stroke-opacity="0.9" stroke-miterlimit="2" stroke-width="2" stroke-dasharray=""/></g></g></g></g><g id="expressions-4bdc42f6"><g id="sketch-4bdc42f6"><title>Expression 12</title><path fill="#6042a6" stroke="none" paint-order="stroke fill markers" d="" fill-opacity="0.4"/><g><path fill="none" stroke="#6042a6" class="dcg-svg-curve" paint-order="fill stroke markers" d=" M 0 377.02702702702703 L 0 377.02702702702703 L 58.59375 374.46203378145117 L 108.3984375 371.77471996163376 L 151.171875 368.95924039885915 L 188.37890625 365.9965897797621 L 220.60546875 362.91679010472643 L 248.73046875 359.71621383642105 L 273.6328125 356.3626786721337 L 295.60546875 352.8801199628432 L 315.234375 349.2366191443193 L 332.51953125 345.49867839429237 L 348.046875 341.60633138943643 L 362.109375 337.532521298158 L 375 333.22422258592474 L 386.71875 328.71211562104554 L 397.265625 324.0469884203576 L 407.2265625 318.98673442064285 L 416.30859375 313.6840183166945 L 424.8046875 307.98209281041153 L 432.71484375 301.8699801680961 L 440.33203125 295.06624915229145 L 447.36328125 287.7790584882698 L 453.80859375 280.0258356409338 L 459.66796875 271.8521787420418 L 464.94140625 263.34194170324815 L 469.921875 254.0415843947481 L 474.609375 243.87600979664091 L 479.00390625 232.7705561902365 L 483.10546875 220.6558908080293 L 486.9140625 207.4754498168872 L 490.4296875 193.19623479844662 L 493.9453125 176.29746276000196 L 497.16796875 157.80874716668671 L 500.09765625 137.7323482897633 L 503.02734375 113.52841113749702 L 505.6640625 87.02499946956948 L 508.30078125 54.42036474617163 L 510.64453125 18.378830225715774 L 511.928203777015 -6.5" stroke-linecap="round" stroke-linejoin="round" stroke-miterlimit="10" stroke-width="3.5" stroke-opacity="0.9" stroke-dasharray=""/></g><g><path fill="none" stroke="#6042a6" class="dcg-svg-curve" paint-order="fill stroke markers" d=" M 545.5389212999535 806.5 L 545.5389212999535 806.5 L 546.97265625 762.7441172119507 L 549.31640625 708.939187917291 L 551.953125 662.2669380975829 L 554.58984375 625.5648965967224 L 557.51953125 592.87323552998 L 560.7421875 563.834016246641 L 563.96484375 539.9636361140517 L 567.48046875 518.174476466327 L 571.2890625 498.2142795460224 L 575.390625 479.7942977880027 L 580.078125 461.5330874249903 L 585.3515625 443.44609818698393 L 591.796875 423.57265281329677 L 602.63671875 392.5184606667878 L 612.01171875 364.9121030305816 L 617.87109375 345.7560209121867 L 622.8515625 327.3503185122327 L 627.24609375 308.67944728565794 L 631.0546875 289.8886622643964 L 634.5703125 269.57832434498494 L 637.79296875 247.558896474103 L 640.72265625 223.7151071914219 L 643.65234375 194.89464971341067 L 646.2890625 163.09567080849126 L 648.92578125 123.47608636616349 L 651.26953125 78.89180570129372 L 653.3203125 29.444609486293643 L 654.4772143847855 -6.5" stroke-linecap="round" stroke-linejoin="round" stroke-miterlimit="10" stroke-width="3.5" stroke-opacity="0.9" stroke-dasharray=""/></g><g><path fill="none" stroke="#6042a6" class="dcg-svg-curve" paint-order="fill stroke markers" d=" M 688.0485972675419 806.5 L 688.0485972675419 806.5 L 690.234375 767.17489084046 L 692.87109375 730.204875521 L 695.80078125 697.6138000732478 L 698.73046875 671.3852685786161 L 701.953125 647.8465360307138 L 705.17578125 628.4259337607514 L 708.69140625 610.7557290034168 L 712.5 594.7494033412888 L 716.30859375 581.2389142883293 L 720.41015625 568.8467570392168 L 724.8046875 557.5084140471578 L 729.4921875 547.1474267154051 L 734.47265625 537.6829438609584 L 739.74609375 529.0346020328396 L 745.3125 521.1254960406529 L 751.46484375 513.5468757323431 L 758.203125 506.36435476147585 L 765.52734375 499.61245360252155 L 773.73046875 493.0859941880227 L 782.2265625 487.24339493085085 L 791.30859375 481.82014124838395 L 800.9765625 476.7957295463376 L 811.5234375 472.0221044091576 L 822.94921875 467.5207202406966 L 835.25390625 463.29985318467754 L 848.73046875 459.27670104609433 L 863.671875 455.40449895621475 L 880.078125 451.72281672659227 L 898.53515625 448.1489818020009 L 919.04296875 444.7371403516831 L 941.89453125 441.48173818774575 L 967.67578125 438.3508241905644 L 996.97265625 435.33558407710075 L 1030.37109375 432.4413606405941 L 1068.45703125 429.6806734529404 L 1112.109375 427.0519513096625 L 1162.79296875 424.53704028624236 L 1200 422.97297297297297" stroke-linecap="round" stroke-linejoin="round" stroke-miterlimit="10" stroke-width="3.5" stroke-opacity="0.9" stroke-dasharray=""/></g></g></g><g id="labels-4bdc42f6"/></g></svg>