<svg version="1.1" xmlns="http://www.w3.org/2000/svg" xmlns:xlink="http://www.w3.org/1999/xlink" width="2400" height="1600"><defs/><g transform="scale(2,2)"><g id="background-5bb9cb1a"><rect fill="none" stroke="none" x="0" y="0" width="1200" height="800" class="dcg-svg-background"/></g><g id="background-images-5bb9cb1a"/><g id="graphpaper-5bb9cb1a"><g id="axis-5bb9cb1a"><g><g><path fill="none" stroke="rgb(0,0,0)" class="dcg-svg-tickmark" paint-order="fill stroke markers" d="" stroke-opacity="0.9" stroke-miterlimit="2" stroke-width="1.5" stroke-dasharray=""/></g></g></g></g><g id="expressions-5bb9cb1a"><g id="sketch-5bb9cb1a"><title>Expression 12</title><path fill="#6042a6" stroke="none" paint-order="stroke fill markers" d="" fill-opacity="0.4"/><g><path fill="none" stroke="#6042a6" class="dcg-svg-curve" paint-order="fill stroke markers" d=" M 635.0515463917526 800 L 635.0515463917526 800 L 638.3763593499007 767.4479166666667 L 641.8233634175131 739.3229166666667 L 645.4355549737544 714.5833333333333 L 649.1711853238473 692.96875 L 653.091748510856 673.6979166666667 L 657.1243466065965 656.7708333333333 L 661.315230346686 641.6666666666667 L 665.6738632511142 628.125 L 670.2292883786598 615.8854166666667 L 675.0398159384847 604.6875 L 680.0675623255804 594.53125 L 685.4098609078872 585.15625 L 691.0450137555401 576.5625 L 697.1420416380272 568.4895833333334 L 703.7279067722483 560.9375 L 710.8227973273597 553.90625 L 718.7644226442337 547.1354166666666 L 726.9385508772962 541.1458333333334 L 735.5946204495397 535.6770833333334 L 744.6623293724404 530.7291666666666 L 754.6174535005267 526.0416666666666 L 764.8677001981582 521.875 L 775.9834180018585 517.96875 L 788.009983752948 514.3229166666666 L 802.0572051156652 510.67708333333337 L 817.4128420194916 507.29166666666663 L 834.132904854815 504.16666666666663 L 852.2299636513164 501.30208333333337 L 873.7762866215326 498.4375 L 897.2913036591156 495.83333333333337 L 925.8020894615197 493.22916666666663 L 957.2210641188576 490.88541666666663 L 996.1560978395911 488.54166666666663 L 1039.5567309720427 486.45833333333337 L 1094.7953511874684 484.375 L 1157.2178099583552 482.55208333333337 L 1205.5 481.48066117569834" stroke-linecap="round" stroke-linejoin="round" stroke-miterlimit="10" stroke-width="2.5" stroke-opacity="0.9" stroke-dasharray=""/></g><g><path fill="none" stroke="#6042a6" class="dcg-svg-curve" paint-order="fill stroke markers" d=" M -5.5 458.94163517989153 L -5.5 458.94163517989153 L 0.9696044436180955 458.85416666666663 L 98.76780840288404 457.03125 L 171.45192855550113 455.20833333333337 L 234.68299427217062 453.125 L 289.08477407867406 450.78125 L 331.5397779281251 448.4375 L 369.0764085412907 445.83333333333337 L 399.43067190339997 443.22916666666663 L 426.86527834695164 440.36458333333337 L 451.61832295248826 437.23958333333337 L 473.9929263563018 433.85416666666663 L 494.3182198800895 430.20833333333337 L 512.9282173625089 426.30208333333337 L 530.1531236173151 422.13541666666663 L 547.2165585455882 417.44791666666663 L 565.0130609144273 411.97916666666663 L 585.9090333307395 404.94791666666663 L 639.8920717891829 386.45833333333326 L 658.2484184844955 380.98958333333326 L 674.9879385209181 376.5625 L 691.7684341167469 372.65625 L 709.7649011231078 369.01041666666674 L 729.2022023102667 365.625 L 750.2762430939226 362.5 L 773.1347216530474 359.63541666666674 L 800.5693280966011 356.77083333333326 L 830.923591458708 354.16666666666674 L 864.3068259785274 351.82291666666674 L 905.6902719377426 349.47916666666674 L 951.9362879851407 347.39583333333326 L 1011.0757273168888 345.3125 L 1078.3733813763533 343.48958333333326 L 1167.7932405566573 341.66666666666674 L 1205.5 341.1003444282794" stroke-linecap="round" stroke-linejoin="round" stroke-miterlimit="10" stroke-width="2.5" stroke-opacity="0.9" stroke-dasharray=""/></g><g><path fill="none" stroke="#6042a6" class="dcg-svg-curve" paint-order="fill stroke markers" d=" M -5.5 318.51532592218473 L -5.5 318.51532592218473 L 32.44778024783932 317.70833333333326 L 105.20464881253162 315.625 L 160.44326902795484 313.54166666666674 L 208.62518054103782 311.19791666666674 L 246.59698011179893 308.85416666666674 L 280.37602820211515 306.25 L 307.76538570429585 303.64583333333326 L 332.49829394483515 300.78125 L 354.70296923202693 297.65625 L 373.17318940455647 294.53125 L 389.98887105041604 291.14583333333326 L 405.25059665871123 287.5 L 418.22672462124933 283.85416666666674 L 430.1474254794551 279.94791666666674 L 441.0792412790497 275.78125 L 451.09612811294556 271.35416666666674 L 460.27397260273966 266.66666666666674 L 469.0986723275429 261.45833333333326 L 477.4775604953596 255.7291666666667 L 485.3593428035125 249.4791666666667 L 492.9858248433544 242.4479166666667 L 499.7975812321247 235.15625 L 506.1132331853142 227.34375 L 511.9562847553301 219.0104166666667 L 517.3552711475387 210.15625 L 522.4702366647575 200.5208333333333 L 527.2833613932225 190.1041666666667 L 531.8874306236999 178.6458333333333 L 536.248571826911 166.1458333333333 L 540.4226173844811 152.34375 L 544.4379368700867 136.97916666666674 L 548.3043487732516 119.79166666666674 L 552.0199834928087 100.52083333333326 L 555.5765833494146 78.90625 L 558.9969866108698 54.42708333333326 L 562.2834010093751 26.5625 L 564.9484536082474 0" stroke-linecap="round" stroke-linejoin="round" stroke-miterlimit="10" stroke-width="2.5" stroke-opacity="0.9" stroke-dasharray=""/></g></g></g><g id="labels-5bb9cb1a"/></g></svg>