<svg xmlns="http://www.w3.org/2000/svg" width="2400" height="1600">
    <style type="text/css">
      .curve-path {
        fill             : none;
        stroke           : #14C38E;
        /* paint-order      : fill stroke markers; */
        stroke-linecap   : round;
        stroke-linejoin  : round;
        stroke-miterlimit: 10;
        stroke-dasharray : 1003;
        stroke-width: 3.5;
        animation        : loop 15s ease-in-out infinite;
      }
      @keyframes loop {
         50% {
            stroke-dashoffset: -1000;
         }
      }
   </style>
    <path fill="transparent" d="M0 0h2400v1600H0z" class="dcg-svg-background"/>
    <g transform="scale(2)">
        <path fill="none" stroke="rgba(20,195,143,0.329)" stroke-linecap="round" stroke-linejoin="round" stroke-width="3.5" 
        d="M0 377.027h0l58.594-2.565 49.804-2.687 42.774-2.816 37.207-2.962 32.226-3.08 28.125-3.2 24.903-3.354 21.972-3.483 19.63-3.643 17.285-3.738 15.527-3.893 14.062-4.073L375 333.224l11.719-4.512 10.547-4.665 9.96-5.06 9.083-5.303 8.496-5.702 7.91-6.112 7.617-6.804 7.031-7.287 6.446-7.753 5.859-8.174 5.273-8.51 4.98-9.3 4.688-10.166 4.395-11.105 4.101-12.115 3.81-13.18 3.515-14.28 3.515-16.899 3.223-18.488 2.93-20.077 2.93-24.204 2.636-26.503 2.637-32.605 2.344-36.041L511.928-6.5M545.539 806.5h0l1.434-43.756 2.343-53.805 2.637-46.672 2.637-36.702 2.93-32.692 3.222-29.039 3.223-23.87 3.515-21.79 3.81-19.96 4.1-18.42 4.688-18.26 5.274-18.088 6.445-19.873 10.84-31.055 9.375-27.606 5.86-19.156 4.98-18.406 4.394-18.67 3.809-18.791 3.515-20.31 3.223-22.02 2.93-23.844 2.93-28.82 2.636-31.8 2.637-39.619 2.344-44.584 2.05-49.447L654.477-6.5M688.049 806.5h0l2.185-39.325 2.637-36.97 2.93-32.591 2.93-26.229 3.222-23.538 3.223-19.421 3.515-17.67 3.809-16.007 3.809-13.51 4.101-12.392 4.395-11.339 4.687-10.36 4.98-9.465 5.274-8.648 5.567-7.91 6.152-7.578 6.738-7.183 7.324-6.752 8.203-6.526 8.497-5.843 9.082-5.423 9.668-5.024 10.546-4.774 11.426-4.501 12.305-4.221 13.476-4.023 14.942-3.873 16.406-3.681 18.457-3.574 20.508-3.412 22.852-3.255 25.78-3.131 29.298-3.015 33.398-2.895 38.086-2.76 43.652-2.629 50.684-2.515 37.207-1.564" class="dcg-svg-curve" paint-order="fill stroke markers"/>
    </g>
</svg>
