<svg xmlns="http://www.w3.org/2000/svg" width="28" height="28">
    <path d="M0 0h28v28H0z" style="fill:none"/>
    <path d="m22.6 205.022 6.753-4.018 7.198-4.575 7.757-5.302 8.426-6.25 9.431-7.366 11.16-9.152 17.133-14.62 17.522-14.788 10.491-8.37 8.817-6.697 8.036-5.636 7.198-4.688 6.697-3.962 6.194-3.348 5.86-2.79 5.58-2.344 5.357-1.897 5.19-1.563 5.078-1.227 4.855-.837 4.91-.614 4.744-.335h4.743l4.799.223 4.743.502 4.911.837 4.967 1.116 5.078 1.396 5.134 1.785 5.413 2.12 5.58 2.568 5.86 3.013 6.193 3.516 6.697 4.13 7.199 4.91 8.035 5.86 9.04 6.975 10.659 8.76 15.513 13.17 20.257 17.132 10.77 8.65 9.264 7.031 8.426 5.971 7.7 5.078 7.088 4.297 2.344 1.34" style="fill:none;stroke-width:45;stroke-linecap:round;stroke-linejoin:round;stroke:#d6ae85;stroke-opacity:1;stroke-miterlimit:10" transform="scale(.07)"/>
    <path d="m22.6 203.906 6.25-5.134 6.976-6.138 8.705-8.036 24.554-22.99 6.64-5.749 5.916-4.631 5.357-3.795 4.91-3.07 4.465-2.51 4.185-1.953 4.018-1.507 3.795-1.172 3.571-.837 3.516-.502 3.404-.224 3.348.056 3.404.28 3.404.613 3.404.837 3.46 1.172 3.627 1.507 3.739 1.897 4.018 2.344 4.185 2.846 4.464 3.46 4.632 3.962 4.743 4.52 5.134 5.19 5.357 5.915 5.971 6.975 7.087 8.65 10.212 12.89 14.23 18.08 7.087 8.539 5.971 6.863 5.413 5.748 4.967 4.91 4.799 4.354 4.576 3.738 4.52 3.237 4.297 2.734 3.962 2.177 3.794 1.674 3.683 1.395 3.516.949 3.46.67 3.404.446 3.404.111 3.404-.167 3.404-.39 3.46-.726 3.571-1.005 3.795-1.339 3.906-1.674 4.185-2.176 4.52-2.623 4.855-3.293 5.413-4.017 5.971-4.855 6.697-5.86 8.37-7.756 25.335-23.717 6.864-5.86 3.516-2.79" style="fill:none;stroke-width:25;stroke-linecap:round;stroke-linejoin:round;stroke:#d6ae85;stroke-opacity:1;stroke-miterlimit:10" transform="scale(.07)"/>
    <path d="m22.6 157.813 4.52-2.567 4.242-2.065 3.906-1.563 3.794-1.227 3.516-.837 3.46-.614 3.348-.28h3.348l3.237.224 3.348.502 3.404.837 3.404 1.116 3.572 1.395 3.627 1.842 3.85 2.176 4.074 2.735 4.297 3.292 4.576 3.85 4.631 4.353 4.911 5.022 5.246 5.748 5.803 6.752 6.92 8.483 10.156 12.89 12.612 15.96 6.808 8.203 5.692 6.473 5.134 5.413 4.743 4.632 4.409 3.906 4.352 3.46 4.241 2.958 3.962 2.343 3.628 1.842 3.46 1.395 3.348 1.06 3.236.782 3.181.39 3.013.168 3.07-.112 3.069-.335 3.18-.67 3.126-.892 3.348-1.284 3.46-1.618 3.627-2.009 3.85-2.511 4.13-3.125 4.352-3.627 4.52-4.186 4.744-4.799 5.134-5.58 5.748-6.64 6.696-8.204 9.654-12.22 13.672-17.356 6.808-8.203 5.86-6.585 5.189-5.58 4.855-4.688 4.632-4.13 4.408-3.57 4.353-3.07 4.018-2.51 3.85-2.01 3.683-1.562 3.516-1.284 3.46-.893 3.348-.613 3.348-.28 3.348-.055 3.348.223 3.404.446 3.404.782 3.572 1.06 3.739 1.395 3.962 1.786 4.24 2.232 2.066 1.227" style="fill:none;stroke-width:15;stroke-linecap:round;stroke-linejoin:round;stroke:#d6ae85;stroke-opacity:1;stroke-miterlimit:10" transform="scale(.07)"/>
</svg>
