<?xml version="1.0" encoding="UTF-8"?>
<svg xmlns="http://www.w3.org/2000/svg" xmlns:xlink="http://www.w3.org/1999/xlink" width="28px" height="28px" viewBox="0 0 28 28" version="1.1">
<g id="surface1">
<rect x="0" y="0" width="28" height="28" style="fill:transparent;"/>
<path style="fill:none;stroke-width:50;stroke-linecap:round;stroke-linejoin:round;stroke:#db5d6e;stroke-opacity:1;stroke-miterlimit:10;" d="M 22.600446 205.022321 L 29.352679 201.004464 L 36.551339 196.428571 L 44.308036 191.127232 L 52.734375 184.877232 L 62.165179 177.511161 L 73.325893 168.359375 L 90.457589 153.738839 L 107.979911 138.950893 L 118.470982 130.580357 L 127.287946 123.883929 L 135.323661 118.247768 L 142.522321 113.560268 L 149.21875 109.598214 L 155.412946 106.25 L 161.272321 103.459821 L 166.852679 101.116071 L 172.209821 99.21875 L 177.399554 97.65625 L 182.477679 96.428571 L 187.332589 95.591518 L 192.243304 94.977679 L 196.986607 94.642857 L 201.729911 94.642857 L 206.529018 94.866071 L 211.272321 95.368304 L 216.183036 96.205357 L 221.149554 97.321429 L 226.227679 98.716518 L 231.361607 100.502232 L 236.774554 102.622768 L 242.354911 105.189732 L 248.214286 108.203125 L 254.408482 111.71875 L 261.104911 115.848214 L 268.303571 120.758929 L 276.339286 126.618304 L 285.379464 133.59375 L 296.037946 142.354911 L 311.551339 155.524554 L 331.808036 172.65625 L 342.578125 181.305804 L 351.841518 188.337054 L 360.267857 194.308036 L 367.96875 199.386161 L 375.055804 203.683036 L 377.399554 205.022321 " transform="matrix(0.07,0,0,0.07,0,0)"/>
<path style="fill:none;stroke-width:35;stroke-linecap:round;stroke-linejoin:round;stroke:#db5d6e;stroke-opacity:1;stroke-miterlimit:10;" d="M 22.600446 203.90625 L 28.850446 198.772321 L 35.825893 192.633929 L 44.53125 184.598214 L 69.084821 161.607143 L 75.725446 155.859375 L 81.640625 151.227679 L 86.997768 147.433036 L 91.908482 144.363839 L 96.372768 141.852679 L 100.558036 139.899554 L 104.575893 138.392857 L 108.370536 137.220982 L 111.941964 136.383929 L 115.457589 135.881696 L 118.861607 135.658482 L 122.209821 135.714286 L 125.613839 135.993304 L 129.017857 136.607143 L 132.421875 137.444196 L 135.881696 138.616071 L 139.508929 140.122768 L 143.247768 142.020089 L 147.265625 144.363839 L 151.450893 147.209821 L 155.915179 150.669643 L 160.546875 154.631696 L 165.290179 159.151786 L 170.424107 164.341518 L 175.78125 170.256696 L 181.752232 177.232143 L 188.839286 185.881696 L 199.051339 198.772321 L 213.28125 216.852679 L 220.368304 225.390625 L 226.339286 232.254464 L 231.752232 238.002232 L 236.71875 242.912946 L 241.517857 247.265625 L 246.09375 251.004464 L 250.613839 254.241071 L 254.910714 256.975446 L 258.872768 259.151786 L 262.667411 260.825893 L 266.350446 262.220982 L 269.866071 263.169643 L 273.325893 263.839286 L 276.729911 264.285714 L 280.133929 264.397321 L 283.537946 264.229911 L 286.941964 263.839286 L 290.401786 263.113839 L 293.973214 262.109375 L 297.767857 260.770089 L 301.674107 259.095982 L 305.859375 256.919643 L 310.379464 254.296875 L 315.234375 251.004464 L 320.647321 246.986607 L 326.618304 242.131696 L 333.314732 236.272321 L 341.685268 228.515625 L 367.020089 204.799107 L 373.883929 198.939732 L 377.399554 196.149554 " transform="matrix(0.07,0,0,0.07,0,0)"/>
<path style="fill:none;stroke-width:25;stroke-linecap:round;stroke-linejoin:round;stroke:#db5d6e;stroke-opacity:1;stroke-miterlimit:10;" d="M 22.600446 157.8125 L 27.120536 155.245536 L 31.361607 153.180804 L 35.267857 151.618304 L 39.0625 150.390625 L 42.578125 149.553571 L 46.037946 148.939732 L 49.386161 148.660714 L 52.734375 148.660714 L 55.970982 148.883929 L 59.319196 149.386161 L 62.723214 150.223214 L 66.127232 151.339286 L 69.698661 152.734375 L 73.325893 154.575893 L 77.176339 156.752232 L 81.25 159.486607 L 85.546875 162.779018 L 90.122768 166.629464 L 94.754464 170.982143 L 99.665179 176.004464 L 104.910714 181.752232 L 110.714286 188.504464 L 117.633929 196.986607 L 127.790179 209.877232 L 140.401786 225.837054 L 147.209821 234.040179 L 152.901786 240.513393 L 158.035714 245.926339 L 162.779018 250.558036 L 167.1875 254.464286 L 171.540179 257.924107 L 175.78125 260.881696 L 179.743304 263.225446 L 183.370536 265.066964 L 186.830357 266.462054 L 190.178571 267.522321 L 193.415179 268.303571 L 196.595982 268.694196 L 199.609375 268.861607 L 202.678571 268.75 L 205.747768 268.415179 L 208.928571 267.745536 L 212.053571 266.852679 L 215.401786 265.569196 L 218.861607 263.950893 L 222.488839 261.941964 L 226.339286 259.430804 L 230.46875 256.305804 L 234.821429 252.678571 L 239.341518 248.493304 L 244.084821 243.694196 L 249.21875 238.113839 L 254.966518 231.473214 L 261.662946 223.270089 L 271.316964 211.049107 L 284.988839 193.694196 L 291.796875 185.491071 L 297.65625 178.90625 L 302.845982 173.325893 L 307.700893 168.638393 L 312.332589 164.508929 L 316.741071 160.9375 L 321.09375 157.868304 L 325.111607 155.357143 L 328.962054 153.348214 L 332.645089 151.785714 L 336.160714 150.502232 L 339.620536 149.609375 L 342.96875 148.995536 L 346.316964 148.716518 L 349.665179 148.660714 L 353.013393 148.883929 L 356.417411 149.330357 L 359.821429 150.111607 L 363.392857 151.171875 L 367.131696 152.566964 L 371.09375 154.352679 L 375.334821 156.584821 L 377.399554 157.8125 " transform="matrix(0.07,0,0,0.07,0,0)"/>
</g>
</svg>
