<svg xmlns="http://www.w3.org/2000/svg" width="400" height="400" version="1.0" viewBox="0 0 300 300">
   <style type="text/css">
      :root{
         --anim-t: 13s;
      }
      .curve-path {
         fill             : rgba(20,195,143,0.329);
         /* stroke           : rgba(20,195,143,0.329); */
         paint-order      : fill stroke markers;
         /* stroke-linecap   : round; */
         /* stroke-linejoin  : round; */
         stroke-miterlimit: 10;
         stroke-dasharray : 1003;
         /* animation        : loop 15s ease-in-out infinite; */
      }
      @keyframes loop {
         50% {
            stroke-dashoffset: -1000;
         }
      }
      #Support {
         opacity: 0;
         animation: support-fade var(--anim-t) ease-out infinite;
      }
      @keyframes support-fade {
         10%{
            opacity: 1;
         }
         70%{
            opacity: 1;
         }
      }
      #ArmL {
         opacity: 0;
         animation: armL-fade var(--anim-t) ease-out infinite;
      }
      @keyframes armL-fade {
         10%{
            opacity: 0;
         }
         20%{
            opacity: 1;
         }
         80%{
            opacity: 1;
         }
      }
      #ArmR {
         opacity: 0;
         animation: armR-fade var(--anim-t) ease-out infinite;
      }
      @keyframes armR-fade {
         15%{
            opacity: 0;
         }
         25%{
            opacity: 1;
         }
         70%{
            opacity: 1;
         }
      }
      #Detail1 {
         opacity: 0;
         animation: Detail1-fade var(--anim-t) ease-out infinite;
      }
      @keyframes Detail1-fade {
         28%{
            opacity: 0;
         }
         38%{
            opacity: 1;
         }
         80%{
            opacity: 1;
         }
      }
      #Detail2 {
         opacity: 0;
         animation: Detail1-fade var(--anim-t) ease-out infinite;
      }
      @keyframes Detail1-fade {
         35%{
            opacity: 0;
         }
         45%{
            opacity: 1;
         }
         80%{
            opacity: 1;
         }
      }
      #Hair {
         opacity: 0;
         animation: hair-fade var(--anim-t) ease-out infinite;
      }
      @keyframes hair-fade {
         25%{
            opacity: 0;
         }
         35%{
            opacity: 1;
         }
         80%{
            opacity: 1;
         }
      }
      #Face {
         opacity: 0;
         animation: face-fade var(--anim-t) ease-out infinite;
      }
      @keyframes face-fade {
         27%{
            opacity: 0;
         }
         37%{
            opacity: 1;
         }
         45%{
            opacity: 1;
         }
         60%{
            opacity: 0;
         }
      }

   </style>
    <g>
        <path id='Hair'    class="curve-path" d="M163.7 24.2c-2.7 1-2.7 1.1-1.1 2.9.9 1 1.3 1.9.8 1.9s-1.5-.9-2.2-2c-1.5-2.4-5.7-2.8-4.8-.4.3.8.2 1.2-.4.9-.6-.3-1 .1-1 .9s-.9 2-2 2.6c-1.1.6-2.3 2.3-2.6 3.8-.4 1.5-1.3 3.6-2 4.7-.8 1.1-1.4 2.9-1.4 4-.1 1.1-1.4 5.8-3 10.5-3.3 9.5-3.5 11-1.9 15.5 1 2.6.8 4.2-.9 9.1-1.5 4.3-2.1 5.2-2.1 3.2-.1-1.4-.7-2.9-1.3-3.2-1-.3-.8-.9.5-1.9 2.4-2 2.2-5.3-.5-6-1.2-.4-2.8-.1-3.5.5-1.8 1.4-1.6 5.5.2 6.2.8.3 1.5 1.5 1.5 2.6 0 1.2.5 1.8 1 1.5.6-.3 1-.1 1 .4 0 1.6-2.6 1.3-4.1-.5-3.4-4.1-1.1-14.2 3.1-13.1 1.6.4 1.7.1 1-1.8-.5-1.3-.6-2.6-.2-3 .4-.4 0-.6-.8-.3-2.4.7-6.4 9.8-6.3 14.3 0 5.8 1.1 9.5 2.8 9.5.8 0 1.5-.5 1.5-1 0-.6-.5-1-1.2-1-.6 0-.8-.3-.5-.6.4-.4 2.1.7 3.9 2.5 1.8 1.7 3.9 3.1 4.8 3 3.7-.3 4.8.3 6 3.2 1.1 2.5 1 4.2-.4 9.9-2 8.4-2 9.1.1 13.4 1.3 2.9 1.4 3.8.3 5.1-1.6 1.9-3 1.9-3 0 0-.8-.4-1.5-1-1.5-1 0-1.6 10.4-1.3 20 1 26.9 1.3 33.8 1.8 40.6.3 4.4 1.1 9.7 1.7 11.9.6 2.2 1.3 4.6 1.4 5.3.1.8.5 1.7.9 2 .3.4.4-.7.1-2.4-.4-2.3-.1-3.6 1.4-4.9 1.1-1 2-2.6 2-3.7 0-1 .5-1.8 1.1-1.8.5 0 .7-.5.4-1-.9-1.5 10.3-22.5 14.8-27.6 2.1-2.4 3.5-4.4 2.9-4.4-2.2 0-9.5 10.7-15 22-5.6 11.7-8.6 14.7-6.3 6.3 1.2-4.3 1-4.8-1.7-3.4-1.9 1-2 .9-1.1-2.4.6-1.9.9-4.1.8-4.7-.4-3.1.2-4.8 1.6-4.8.8 0 1.5-.7 1.5-1.7 0-.9.3-1.4.6-1 .4.3 2.4-2.2 4.6-5.6 2.2-3.4 5-7.2 6.1-8.5 1.7-1.9 1.8-2.2.4-1.6-.9.3-1.7.9-1.7 1.3 0 .3-1.3 2-2.8 3.6-1.6 1.7-4.1 4.9-5.7 7.3-2.5 3.8-6.5 5.8-6.5 3.2 0-3.7 8.9-12.8 16.2-16.6 5.3-2.7 7.5-5 3.2-3.4-1.4.6-6 3.5-10.2 6.5-7.8 5.8-9.9 6.6-8.7 3.7 1.3-3.2 1.4-5.1.4-8.4-.7-2.5-.6-3.5.5-4.4 1.2-.9 1.2-1.1-.1-2-1.3-.8-1.5-2.2-.9-7.6.9-7.8 2.2-8.9 6.4-5 1.8 1.7 5 3.2 8.3 3.9 6.6 1.3 9.3.4 5.8-2.1-2.1-1.4-1.9-2.1.4-1.7 1.6.2.5-1.7-1.3-2.2-1-.3-1.9-.2-1.8.2.3 2.8-.4 3.7-3.1 3.5-3.6-.2-6.8-1.9-8.1-4.4-1.3-2.4-1.3-3.3 0-2.5.6.4.1-1.6-1-4.4-1.9-5-1.8-8.1.4-8.1.6 0 .3-.5-.6-1.1-1.9-1.1-2.5-6.4-.8-7.4 1.7-1.1 1.1-5.1-1.4-8.8-1.3-1.9-2.2-3.8-1.9-4.1.9-.9-4.1-.3-5.4.6-.6.5-1.4.5-1.7 0-.6-1 2.5-10.3 4.1-11.9.6-.7 2.1-2.8 3.3-4.8 2.4-3.9 4.7-4.8 10.1-4.1 2 .2 4.2 0 5-.5.8-.5 1.1-.9.7-1-.5-.1-1.2-.3-1.8-.4-.5-.1-1.5-.3-2.1-.4-.5 0-.7-.6-.3-1.3.5-.8.2-.9-1-.5-.9.4-2.6.1-3.6-.5-1.6-1-2.3-.9-3.7.5-1.7 1.7-1.7 1.8.2 1.2 1.9-.6 1.9-.6.2.5-1.5.9-2.2.8-3.8-.6-1-.9-2.1-1.5-2.4-1.2-.3.3.1 1.1 1 1.8 1.9 1.6 1.9 3 0 3-1.8 0-3.9-3.6-2.5-4.5.5-.3 1-1.5 1-2.6 0-1 .9-2.4 2-3.1 1.1-.7 2-1.6 2-2.1 0-.4-.5-.5-1.1-.1-.6.3-.4-.7.5-2.4.8-1.6 1.3-3.2.9-3.5-.3-.3.3-1.4 1.2-2.4 1.1-1.1 1.4-1.8.6-2.1-.6-.2-1.1-1.3-1.1-2.4 0-1.4.5-1.8 1.5-1.4.9.3 1.5 0 1.5-.8s-.5-1.6-1.1-1.8c-.7-.2-.5-.9.5-1.7 1-.8 1.6-.9 1.6-.3 0 .7.7.9 1.7.5s1.4-.2 1 .4c-.4.6.2 1.3 1.3 1.6 1.5.4 2 0 2-1.6 0-1.5.3-1.8 1.1-1s.8 1.7-.1 3.4c-1.1 2.3-1 2.3.5.4 1.9-2.4 1.5-3.7-1.4-5.2-2.3-1.1-2.3-1.1-.4-2.2 1.6-.8 2.4-.6 4.1 1.2 1.1 1.2 2.4 3.5 2.8 5 .5 2.1.9 2.5 1.5 1.5 1.6-2.4.9-4.3-2.7-7-2.8-2.1-4.1-2.5-5.9-1.8-2.6 1-3.5.4-3.5-1.9 0-1.4.2-1.4 1-.1.8 1.2 1 1.2 1.5-.3.5-1.2 1.2-1.4 2.3-.8 1 .5 3.5.7 5.7.5 4-.4 5.6.3 12.4 5.3 2.4 1.7 2.4 1.7 1.2-.5-.6-1.2-1.6-2.2-2.1-2.2-.6 0-1-.5-1-1.2 0-.6.9-.3 2 .7s2 1.3 2 .8c0-.6-1.6-2.1-3.6-3.2-2-1.2-3.4-2.5-3.1-2.8.4-.3 1.3-.1 2 .5.8.7 1.7.9 2 .5.4-.3 1.4.4 2.4 1.6 1 1.2 2.6 2.3 3.6 2.5.9.1 4.1 2.3 6.9 4.8 4.3 3.6 5.7 5.6 7.2 10.4 2.2 6.6 7.1 12 9.3 10.2 1-.8 1.3-.6 1.3.5 0 2.9-2.1 2.9-5.1.1-1.6-1.5-2.9-2.3-2.9-1.7 0 .6 1.2 1.8 2.6 2.8 1.4.9 2.3 1.9 2 2.2-.3.3-1.4 0-2.3-.8-1.7-1.3-1.7-1.3-.3.5.8 1 1.5 2.5 1.6 3.3.2.8 1 2.3 2 3.4.9 1 1.2 1.9.6 1.9s-1.8-1-2.8-2.3c-1.7-2.4-1.7-2.6-.3 3.3.2.8-.2 1.4-.8 1.2-.7-.1-1.3.3-1.3.9 0 .8-.5.7-1.5-.1-.9-.7-1.4-1.9-1.1-2.6.2-.7-.5-2-1.7-3.1-1.8-1.5-1.9-1.5-.8-.1 1.1 1.5 1 2-.3 3.3-.9.9-1.6 2.5-1.6 3.5 0 2.3-1.6 2.9-5.9 2.2l-3.3-.5 2.6 2.6c3 3 5.7 2.9 7.3-.4 2.2-4.3 3.8-2.9 3.5 3.1-.3 5.9.8 5.8 2.8-.3.6-2 1.5-3.7 2-3.7s1.1-1 1.3-2.3l.4-2.2.2 2.3c.1 2.2.2 2.2 2.6.6 1.3-.9 2.7-2.4 3-3.5.4-1.1 1-1.7 1.5-1.4 1.8 1.1 3.3-2.5 2.4-5.7-1.1-3.8-2.9-4.7-3.1-1.6-.2 1.6 0 1.9.6.9 1.3-2.1 2.5 2.4 1.2 4.6-.9 1.6-1 1.6-1.1.1 0-.9-.4-1.9-.9-2.2-.5-.4-.7.3-.4 1.4.7 2.8-1.1 2.5-3.1-.5-.9-1.4-1.4-2.5-1-2.5.4 0 .1-.6-.5-1.4-1-1.2-.9-1.3.7-.9 2.7.7 3.3-.6 3.7-8.8.3-6.9.2-7.2-3.2-11-1.9-2.1-4.4-3.9-5.4-3.9-1.1 0-1.9-.4-1.9-.9s-.7-1.1-1.5-1.5c-1.3-.5-1.3-.2.1 1.9.9 1.4 2.4 2.5 3.3 2.6.9 0 2.9 1.7 4.6 3.7 1.9 2.5 2.2 3.1.7 1.8-2.7-2.4-2.8-1.7-.2 2.9 2.7 4.9 2.5 5.8-1 4-1.6-.8-2.9-2.1-2.7-2.8.1-.6-.6-1.2-1.5-1.2-1 0-1.7-.4-1.7-.9s-.3-1.2-.8-1.5c-.7-.5-2-2.9-4.2-7.5-.2-.5.4-.6 1.3-.3.9.4 1.6.5 1.6.3 0-.6-12.5-8.5-14-8.8-.8-.2-2.3-1.3-3.2-2.5-1-1.1-2.6-2-3.6-1.8-.9.1-3.2-.4-5.1-1.1-3.9-1.6-5.5-1.6-9.4-.2zm-26.3 51.2c-.3.9-1 1.3-1.6 1-.5-.3-.4-1.2.3-2 1.5-1.8 2.2-1.3 1.3 1z"/>
        <!-- <path id='Face'    class="curve-path" d="M182.7 36.1c1.2 2.3 1.8 2.8 2.4 1.8.6-1 .9-1 .9-.2 0 .6 2 3.2 4.5 5.7 2.5 2.6 4.5 5.2 4.5 5.9 0 .6-.7.3-1.5-.7-1.1-1.4-1.5-1.6-1.5-.5 0 .9-.8.5-2.1-1.1l-2-2.5.7 2.5c.8 3 2.6 4.3 3.5 2.8.5-.7 1.4.3 2.5 2.5 1.7 3.6 4.2 5.4 3 2.1-.3-.9-.6-2-.6-2.5 0-.6-.4-.7-1-.4-1.2.8-1.3-.5 0-2.5.8-1.3.9-1.3 1.4 0 1.3 4.3 1.4 4.5 1.5 2.4.2-3.3-8.2-13.9-10.1-12.8-.4.3-1.7-.9-2.9-2.6-3.1-4.1-5.3-4.1-3.2.1zM170.4 40.4c0 1.3.6 2.4 1.1 2.3.6-.1.9.4.8 1-.2.7.2 1.3.7 1.3.7 0 .7.6 0 1.9-1.5 2.8.5 3.5 2.3.8 1.3-2.1 1.2-2.5-1.8-6-3.1-3.6-3.3-3.6-3.1-1.3zM178.9 47.7c-1.2 1.5-1.2 1.6.5 1 1.6-.6 1.8-.4 1.3 2.1-.4 2.1-.1 3.1 1.5 4.1 1.5.9 1.8 1 1.2 0-.4-.7-.8-2.8-.9-4.7-.1-4.1-1.6-5.1-3.6-2.5zM184.9 48c-.3.8-.2 3 .3 4.9.7 2.6 1.2 3.1 1.8 2.1.5-.8.5-1.9 0-2.5-.4-.5-1-2.1-1.2-3.5-.2-1.7-.5-2-.9-1zM188.8 53.6c-.3 1.2-.2 2.8.3 3.5 1.2 2 1.6.8.9-2.6-.5-2.7-.6-2.8-1.2-.9zM161.7 56.6c-.2.3-.3 1.4 0 2.5.6 2.2 5.3 2.6 10 .8 1.9-.7 2.9-.7 3.1 0 .2.6.9 1.1 1.7 1.1.7 0 1.8.6 2.4 1.4.7.8 3.5 2 6.3 2.6 2.9.6 5.7 1.5 6.4 2.1.9.7 1.5.5 2.3-.9.9-1.7.6-2.1-1.7-2.9-8.7-3.1-13.1-4.7-16-5.8-2-.7-4.9-.9-7.2-.5-2.1.4-4.5.3-5.3-.1-.8-.5-1.7-.6-2-.3zM171.3 68.7c-2.1.8-1.5 2.3 1 2.3 1.2 0 3.4.7 5 1.4 2.4 1.4 2.8 1.2 2.6-1.2 0-.4-.8-.5-1.7-.4-.9.2-2.1-.2-2.7-1-1.1-1.4-2.4-1.8-4.2-1.1zM162.2 77.9c5.4 2.1 12.1 6.1 11.4 6.8-.2.2-1.7-.2-3.3-1-6.4-3.3-15.5-5.9-16.6-4.8-1.4 1.4 7.4 5.2 10.3 4.4 1.7-.4 2.1-.2 1.8.8-.3.8.6 1.9 2.1 2.6 2.6 1.1 2.6 1.1.3 1.2-1.3.1-3.3-.4-4.5-1.1-1.2-.6-3.1-1.2-4.1-1.3-1.6-.2-1.5.2.8 2.2 1.5 1.2 4 2.3 5.6 2.3 1.5 0 3.5.3 4.4.6 1.2.5 1.6 0 1.6-1.7.1-2.3.2-2.2 1.3.4l1.2 2.9 2.3-3.1c1.2-1.7 2.2-3.5 2.2-4 0-.6-2.8-2.9-6.2-5.1-5-3.1-7.2-4-10.8-3.9h-4.5l4.7 1.8zM182.3 88.6c-.7 1.5-1.3 3.5-1.3 4.4 0 2.3 4.2 6 6.8 6 3.5 0 3.4-1.8-.2-3.5-2.2-1.1-3.3-2.2-2.9-3.1.8-2.1 3-1.7 3.6.6.3 1.4 1.4 2 3.1 2 1.4 0 2.9.1 3.3.2.4.2.9-.4 1.1-1.3.2-1.2-1-2-4.5-2.9-5.7-1.5-4.4-2.5 1.6-1.1 2.2.5 4.3.5 4.6.1 1-1.6-2.3-3-8.1-3.6-5.7-.6-5.9-.5-7.1 2.2zM121.1 88.9c-.9.6-.5 1 1.4 1.5 3.3.9 4.4.1 1.8-1.2-1.1-.6-2.5-.7-3.2-.3zM115.7 91.7c-.6 3.2-.1 4.3 1.7 4.3 1.1 0 1.5-2.9.8-6.3-.4-1.8-2-.5-2.5 2zM109.8 94.8c-.5 4.3.5 8.9 2.7 11.7 1.3 1.8 1.4 1.5 1.3-4-.1-7.2-.9-10.9-2.4-11.2-.7-.1-1.4 1.4-1.6 3.5zM165 97.5c-1.4.8-4.1 1.9-6 2.5-2.1.5-3.9 1.9-4.5 3.2-.9 2-.6 2.5 2.2 4 1.8 1 3.9 1.8 4.6 1.8.7 0 2.8 1.1 4.7 2.5 1.9 1.4 4.3 2.5 5.4 2.5 2.7.1 6.3 3 6.8 5.5.3 1.7.6 1.6 2.1-1.2 2.3-4.3 2.3-7.4 0-6.6-1 .4-2 1-2.3 1.4-.7 1.1-5-.1-5-1.3 0-.5-.4-.7-1-.3-1.4.8-11.7-4.9-11.2-6.3.2-.7-.4-1.2-1.3-1.2-2.6 0-.8-1.8 2.6-2.5 3.4-.8 6.7 1.1 4.9 2.9-.5.5-1 1.3-1 1.6 0 .8 4.3 2.9 8 4 2.3.6 2.6.4 2.8-1.7.1-1.9-.2-2.4-1.3-1.9-1 .4-1.9-.2-2.5-1.8-.5-1.3-2-2.6-3.4-3-3-.7-3.6-4.2-.8-4.9 1.2-.3 1.2-.5.2-.5-.8-.1-2.6.5-4 1.3z"/> -->
        <path id="ArmL"    class="curve-path" d="M190 149.9c-6.1 1.9-10.4 4-9.7 4.7.2.2 2.4-.3 4.8-1.2 2.7-1 7.4-1.6 12.2-1.6 7.9 0 10.3-1.1 4.5-2.1-1.8-.3-4-.8-4.8-1.1-.8-.3-4 .3-7 1.3zM134.7 150.7c-.4.3-2.1.6-3.8.5-2.4-.1-2.9.3-2.5 1.5.4.9-.7 3.1-2.7 5.3-1.8 2.2-4 5.2-4.8 6.7-.7 1.5-2 3.2-2.6 3.6-.7.4-1.3 1.5-1.3 2.4 0 .9-.6 1.3-1.4 1-1.2-.5-1.5.3-1.3 3.6.1 2.3-.2 5.2-.6 6.4-.6 1.7-.5 2.3.7 2.3.8 0 1.8-.5 2.2-1.2.5-.7.3-.8-.5-.3-.8.4-.6-.4.4-1.8 1.8-2.8 1.2-7.2-.8-6-.7.4-.6 0 .2-1 .9-1.1 2.2-1.5 4-1.2 2.5.5 2.5.5.3-.5l-2.2-1 2-2c1.1-1.1 2.5-1.9 3.2-1.8.6.2 1.3-.6 1.5-1.7.3-2 .3-2-.6 0-.5 1.1-1 1.4-1 .7-.1-2 3-6.2 4.5-6.2.8 0 1.4-.7 1.4-1.5 0-1.7 4.9-6.5 6.7-6.5.7 0 1.3-.5 1.3-1 0-1.1-1.3-1.3-2.3-.3zM108.1 158.6c-1.3 3.6-2 6.8-1.7 7.1.3.4.6.1.6-.5 0-.7.9-2.1 2-3.2 1.3-1.3 2-3.3 2-6 0-2.2-.1-4-.3-4-.1 0-1.3 3-2.6 6.6zM121.9 152.4c-.3.3-2.4.6-4.7.7-2.4.2-4.6.7-4.9 1.2-.8 1.3 12.3.4 13.6-1.1.9-.9.7-1.2-1.2-1.2-1.3 0-2.6.2-2.8.4zM195.8 154.6c-5.8 1.2-11.4 2.7-12.5 3.4-1.7 1.1-1.7 1.1.2.5 1.1-.4 7-1.4 13.1-2.3l11-1.6 3.7 2.8c2.5 1.9 3.7 2.4 3.7 1.5 0-.9.5-.7 1.1.5.6 1 1.1 3.9 1.1 6.5-.1 4.8-3.5 15.4-5.2 15.9-.6.2-1 .8-1 1.4 0 .6.6.8 1.4.5 8.9-3.4-29.5 36.2-43.1 44.5-6 3.6-6.6 4.8-2.5 4.8 1.5 0 6.5 1.8 10.9 3.9l8.2 4-.6-3.7c-.7-4.4-1.3-5.4-1.3-2.3 0 2.1-.1 2.1-1.7.6-2.6-2.7-2.2-11 .8-14.1 3-3.2 3.9-3 3.4.8-.3 2.3.1 1.7 1.3-1.9 2.1-6.3 3.1-7.4 3.8-4.6.7 2.4 2.5 3.5 4.3 2.4.7-.5.3-1.2-1.4-2.1-3.3-1.8-3.2-2.9.5-3.6 1.6-.4 2.7-1 2.4-1.5-.3-.5-1-.6-1.6-.3-.7.4-.8.2-.4-.4.4-.6 1.4-.8 2.3-.5 1 .4 1.4.2.9-.5-.3-.6-.1-1.4.5-1.8.8-.4.9-.3.5.4-1.2 2 .5 1.3 2.4-.8 1.5-1.8 1.9-1.8 3-.5.7.8 1.7 1.5 2.3 1.5.6 0 .2-.7-.9-1.6-1.6-1.3-1.6-1.5-.2-1 1.3.4 2.3-.4 3.4-2.5 2-3.9 1.4-4.5-1.9-1.8-3.2 2.4-3.5 1.4-.7-2.1 1.1-1.4 2-3.1 2-3.9 0-.8.3-1.1.6-.8 1.2 1.1 4.2-5.8 6.2-14 3.5-13.8 3.6-15.7 1.3-20.9-1.2-2.6-2.4-4.4-2.8-4.1-.3.4-1.6.1-2.7-.6-3.7-2.4-4.9-2.4-15.8-.1zm-16.1 70.9c0 .8-.4 1.5-.9 1.5s-.6.5-.3 1.1c.7 1-2.1 4.9-3.5 4.9-1.9 0-1.6-3 .7-5.8 2.7-3.5 4-4 4-1.7zM134.7 159.4c-.3.8 0 1.7.8 1.9.7.3 1.2 0 1.1-.8-.3-2.2-1.3-2.7-1.9-1.1z"/>
        <path id="ArmR"    class="curve-path" d="M89.3 112.2c-4 4.5-9.2 15.5-11.7 25-1.4 5.3-4.1 14.3-6.1 19.9-5.7 16.6-7.6 31.6-3.8 30.2 1.2-.5 1.5-.2 1.1.9-.4.8-.2 2.1.3 2.9.6 1 .9.6.9-1.6 0-2.3.3-2.7 1-1.5.8 1.2 1 1.1 1-.8 0-1.2-.4-2.2-.9-2.2-.9 0-.4-21.9.5-22.9.2-.2.6 1.5 1 3.8 1.1 6.7 1.9 4.7 1.7-4.2l-.2-8.2 1.6 6.5c1.8 7.8 4 13.3 7.1 17.9 3.5 5.2 5.2 16.1 4.1 25.9-.5 3.6-1.1 4.6-4 6.1-3 1.7-3.4 2.3-3.1 5.4.1 1.9-.5 5.4-1.5 7.6-1.4 3.3-2.1 4-3.8 3.5-1.8-.6-1.8-.4.3 1.6 2.8 2.6 2.3 3.6-.9 1.9-1.3-.7-5.5-1.8-9.4-2.6-7.8-1.4-11.2-1.6-8-.4 1.6.7 1.2 1-2.2 1.5-3.9.7-4.3 1-4.3 3.7 0 2 .4 2.8 1.1 2.3.6-.3 4.3-.6 8.2-.7 6.3 0 6.7-.1 3.2-.8-2.2-.4-5.8-.8-8-.9l-4-.2 3.5-1.5c4.7-2 16.2-1.3 19 1.2 2.1 1.9 2.8 7.5 1 7.5-.5 0-1-.4-1-.9 0-2.6-9.8-3.6-17-1.7-4.7 1.2-5.2 1.2-3.6 0 2.1-1.5 1-2-1.2-.5-.8.5-1.2 2.1-1 3.7l.3 2.9 9.3.2c12 .2 14 1.4 13.8 7.7-.1 4.5-1.6 5.9-4.2 3.9-.5-.5.1.2 1.3 1.5 2.6 2.6 3.2 5.2.8 3.2-1.4-1.1-1.4-1-.5 1.4 1.6 4.2 1.3 4.9-1.6 4.2-2.7-.7-2.7-.7.5 1.9 2 1.8 3.1 3.6 3.1 5.3 0 2.6 0 2.5-3.5-1.2-3.1-3.4-3.9-3.8-6.7-3.2-2.2.4-4.7 2.2-7.5 5.3-2.4 2.6-4.3 4.4-4.3 4 0-1.5 2.2-5.2 4.9-8.1l2.6-3-2.5 1.7c-1.4 1-3.2 2-4.1 2.3-1.4.5-1.7 2.5-1.8 12.5 0 7.7.3 11.8.9 11.4.6-.3 1-1.3 1-2.1s.4-1.4.9-1.4c.4 0 .4-2-.2-4.5-.9-4-.8-4.8 1.6-8.3 4.4-6.7 12.2-8.9 14.8-4.1 1.6 3.1 2.1 9.2.7 8.3-1-.6-1.1-.4 0 .7.6.7 1.2 2.7 1.2 4.5 0 3.2 5.6 13.2 7.5 13.3.5.1 4.9-2.5 9.7-5.7l8.7-5.7.2-7.5c.1-4.1.3-11.2.4-15.8.2-9.9 1.5-12.2 9.5-16.7l5.2-3-.5-5c-.3-2.8-1.1-8.1-1.8-12l-1.2-6.9-1.6 4.2c-.9 2.3-2.3 5-3.1 6-.8.9-2.4 3.5-3.5 5.7s-2.6 4.8-3.4 5.7c-.7 1-1 2.5-.7 3.5.4.9.4 1.4 0 1-.9-.8-6.4 7.5-6.4 9.6 0 .7-.5 1.8-1.2 2.5-.6.6-.9 1.4-.6 1.7.3.4 1.9-1.2 3.4-3.4 4.4-6.2 6.1-4.9 2.5 1.9-1.7 3.1-1.7 3.6-.4 4.6 1.3.9 1.4 1.7.4 4.6-.9 2.9-1.7 3.6-3.4 3.3-7.1-.9-8-3.2-5.7-14.1 1-4.9 1.8-10.4 1.9-12.2.1-1.7.2-4.6.2-6.4.1-2.1 1-3.9 2.6-5.1 1.3-1.1 2.2-2.5 1.9-3.2-.2-.8.2-1.6 1-1.9.8-.3 1.4-1.5 1.4-2.6s.5-2 1-2c.6 0 1-.6 1-1.4 0-2.8-3.5-.9-5.4 2.9-2.8 5.6-3.1 2.6-.6-5.1 1.6-4.6 2-7.8 1.6-10.4-.4-2.9-.2-4.1.8-4.7.8-.5 1.8-2.8 2.2-5.3.6-4.2.5-4.4-1-2.5-.8 1.1-1.6 3.2-1.6 4.7 0 1.6-.4 2.8-.9 2.8-1.3 0-1.9-3.5-.9-5.4.6-1.1.4-3.4-.6-6.9-.8-2.8-1.6-8.5-1.8-12.4-.2-4-.7-7.3-1.2-7.3-1.2 0 1.2-27.6 2.9-33.1.4-1 .2-1.9-.4-1.9-.5 0-1.3 1.7-1.8 3.7-.4 2.1-.8 4.1-.9 4.5-.1.5-.2 2.9-.3 5.5-.1 4.7-.2 4.7-1.4 2.2-2.2-4.2-2.7-10.9-1.1-16.8.8-3 1.4-7.5 1.4-9.8 0-2.4.4-4.3.9-4.3s1.4-2.1 2-4.8c.7-2.6 1.9-5.7 2.7-7 .8-1.2 1.3-2.2 1.1-2.2-.2 0-1.3 1-2.4 2.2zm-8.4 28c0 4.7.8 11 1.7 14.3 2.3 8 2.8 21.6.8 20.8-2.3-.8-3.6-7.1-4.1-19.1-.5-10.2.3-24.2 1.2-24.2.2 0 .4 3.7.4 8.2zm9.1 72c0 .2-.7 2.4-1.5 5.1-1.8 5.9-5.1 24.9-6 34.1-.5 4.5-1.4 7.9-2.7 9.7-1.7 2.3-1.8 3-.7 5l1.3 2.4.8-3c.6-2.6.7-2.5.3.8-.3 3.2.1 4.4 2.1 6.4 2.3 2.3 3.1 2.5 7.5 2 6-.7 5.6.5-.8 2.7-6 2-7.6 2-10.3-.2-1.3-1.1-3.3-1.7-4.6-1.4-6.5 1.2 7 8.2 15.8 8.2 2.1 0 3.8.4 3.8.9 0 1-3.5 2.1-7 2.1-1.5 0-3.2.6-3.9 1.3-1 .9-1.5.9-1.8 0-.3-.8-1.3-.9-3.3-.3-2.1.6-3.2.4-4.1-.6-.9-1.1-.8-1.4.5-1.4s1.2-.8-1.1-4.8c-2.6-4.7-2.6-4.8-.8-7.6 1.7-2.6 2-2.7 2.6-1 .4 1.1.8 1.4.8.7.1-.6-.3-2.3-.8-3.6-.7-1.7-.5-6 .5-12.9 1.5-10.5 2.3-17.5 2.8-24 .1-2 .8-4.4 1.5-5.2.7-.8 1.1-2.3.9-3.3-.2-1 .5-2.5 1.6-3.4 1.8-1.5 1.9-2 .8-4.3-1.8-4-1.5-4.6 2.3-4.6 1.9 0 3.5.1 3.5.2zm17.8 24c2.2 2.2 1.4 6.5-1.5 8.6-3.7 2.5-10.5 5.9-8 3.8 1.2-.9 1.4-1.5.6-1.8-.9-.3-.9-.9-.1-2.4.8-1.4 1.2-1.5 1.2-.4 0 .8 1.2-.9 2.6-3.8 2.6-5.5 3.2-6 5.2-4zm-34.5 4c2.6 3.5 1.7 4.5-2.5 2.7-2-.8-6.3-1.3-10.6-1.2-8.7.1-8.7-.7 0-1.8l6.3-.8-7.3.3c-4 .2-7 0-6.5-.4 1.4-1.4 4.6-1.8 11.7-1.7 6.3.2 7.1.5 8.9 2.9zM94 280.9c0 .5-.5 1.1-1.2 1.3-1.9.7-5.8-.3-5.2-1.3.7-1.2 6.4-1.2 6.4 0zm-5.6 9.6c-1.8.8-4.1 2.6-5.2 4-2.2 2.8-4.2 3.3-4.2 1 0-.8-1.1-1.7-2.5-2.1-4-1-3-3 1.3-2.6 2 .2 4.8-.1 6.2-.7 1.4-.5 3.6-1 5-1 2.4.1 2.3.1-.6 1.4z"/>
        <path id="Support" class="curve-path" d="M190 221.9c1.1 2.2 3 2.9 3 1.1 0-.5-.9-1.4-2.1-2-1.9-1.1-2-1-.9.9zM53 222.9c-2.9.8-3.5 4.5-.7 4.7 1.2.1 1.3.1.2-.3-2.1-.6-.9-2.3 1.6-2.3 1.2 0 1.7-.4 1.3-1.1-.4-.8 1.2-.9 5.7-.4 4.5.4 6 .3 4.9-.4-1.7-1.2-9.1-1.3-13-.2zM139.6 227.6c-4.1 3.9-5 5.2-3 4.1 1.6-.8 4-2.7 5.3-4.1 1.3-1.4 2.9-2.3 3.5-1.9.6.3.8.3.4-.2-.4-.4-.3-1.4.3-2.2 2.8-3.3-1.2-.7-6.5 4.3zM161 226.9c0 2.9 1.1 3.4 3.7 1.8.9-.6.7-1.3-.7-2.7-2.6-2.6-3-2.5-3 .9zM147.6 227.5c-.9 1.3-3.1 3.2-4.9 4.1-3.9 2-11 7.5-10.4 8.1 1 .9 15.3-9.6 16.5-12.1 1.5-3.3.9-3.4-1.2-.1zM141.9 236.8c-3.7 3.1-7.2 6.8-7.9 8.2l-1.2 2.5 2.4-2c6.7-5.6 15.3-14.8 13.6-14.4-.2 0-3.3 2.6-6.9 5.7zM50 246.3c0 1.3.5 1.7 1.8 1.4 9.1-2.6 11.9-2.8 16.2-1.3 5 1.7 6.4 1.4 2.8-.6-1.4-.8-5.8-1.3-11.5-1.3-8.3 0-9.3.2-9.3 1.8zM50 250.4c0 .9 1.8 1.5 5.3 1.9 2.8.3 6.1.9 7.2 1.3 1.1.4 1.7.3 1.2-.2-1.1-1.2-9.8-4.4-11.9-4.4-1 0-1.8.6-1.8 1.4zM63.1 250.4c3 .7 6.1 1.6 6.7 2 .7.4 1.2.4 1.2.1 0-1.2-7-3.5-10.2-3.4-2.7.1-2.2.3 2.3 1.3zM204.9 259.7c5.3 5.4 9.8 9.7 10 9.5.6-.3-18.1-19.2-18.9-19.2-.4 0 3.7 4.4 8.9 9.7zM50 255.4c0 1.3.7 2.7 1.6 3 1.2.4 1.5.2 1-.9-.4-1.1.1-1.5 1.7-1.5 2.6 0 10.2 3.3 11.1 4.9.4.6 1.4 1.1 2.2 1.1 4.3 0-5-6.1-11.8-7.8-6-1.5-5.8-1.6-5.8 1.2zM65.4 256.5c1.1.8 2.2 1.2 2.5.9.6-.6-1.9-2.4-3.4-2.4-.5.1-.1.7.9 1.5zM50 261.9c0 1.7 1 2 7.5 2.6 4.2.4 7.9.5 8.2.1.4-.3-.6-.6-2-.6-1.5 0-5-.9-7.9-2-6.4-2.4-5.8-2.4-5.8-.1zM111.6 261.5c-.3 1 .1 1.5 1.3 1.5s2.3 1.1 2.9 2.7c.6 1.6 1.1 2.1 1.1 1.3.1-1.3.2-1.3 1.1 0 .8 1.3 1 1.2 1-.3 0-.9-.5-1.7-1.1-1.7-.5 0-.8-.4-.5-.8.3-.5-.8-1.6-2.3-2.5-2.5-1.5-3-1.5-3.5-.2zM50 266.5c0 .8.9 1.5 2 1.5 2.4 0 2.7-1.5.4-2.4-2.2-.9-2.4-.8-2.4.9zM122.5 266c-.4.6-1.1.8-1.6.5-.5-.4-.9.2-.9 1.1 0 1.6.1 1.6 2-.1 1.1-1 2-2 2-2.2 0-.7-.9-.3-1.5.7zM123 269.1c0 .5.6.9 1.3.9 1.6.1 8.5 5.9 7 6-.7 0-1.3.4-1.3.9s1.1.8 2.4.7c1.8-.2 2.3.1 1.8 1.2-.3.9-.1 1.3.5.9 1.1-.7 3 1.1 4.8 4.7.6 1.1 2.5 2.6 4.4 3.2 1.8.6 5.5 2.9 8.1 5.2 2.7 2.3 5.2 4.2 5.7 4.2.4 0-.3-.9-1.7-1.9-2-1.6-2.2-2.2-1.2-3.4 1-1.2 1-1.7.1-2.3-.7-.4-.9-.3-.5.4 1.3 2.1-1.2 2.2-3.8.1-1.4-1.1-4.2-2.5-6.1-3-2.6-.7-3.9-1.9-4.9-4.3-.8-1.9-1.9-3.7-2.5-4-.6-.4-1.1-1.6-1.1-2.7 0-1.2-1-2.3-2.5-2.9-1.4-.5-3.7-1.7-5.1-2.7-3.1-2-5.4-2.5-5.4-1.2zM182.4 274.3c0 2.3.1 3.4.3 2.4.3-.9.9-1.4 1.5-1.1.7.4.8.2.4-.4-.4-.7.9-1.6 3.6-2.3 3.3-1 3.8-1.4 2.1-1.7-1.2-.2-3.1.2-4.2.8-1.7.9-2.1.8-2.1-.5 0-.8-.3-1.5-.7-1.5-.5 0-.8 1.9-.9 4.3zM208.7 270.6c-.4.4-.7 1.4-.7 2.1 0 3.6-6.8 7.3-13.3 7.3-3.1 0-6.1.6-7.3 1.5-2.7 2-3.9 1.9-5.3-.8l-1.2-2.2.5 2.3c.7 3.9-1.2 7.6-5.4 10.2-2.2 1.3-4 3.1-4 3.9 0 .8-.7 2.3-1.7 3.3-1.4 1.6-1.4 1.8 0 1.8.9 0 1.8-1.2 2.2-2.9.4-1.9 2-3.8 4.6-5.5 2.2-1.5 4.4-3.8 4.9-5.1 1.1-2.9 2.6-3.1 6-.9l2.5 1.6-2.1-1.9c-2.1-1.9-2.1-2-.3-3.1 1.1-.7 4.1-1.2 6.8-1.1 3.8.2 5.9-.4 9.7-2.8 2.7-1.6 4.9-3.6 4.9-4.4.1-.8.7-1.3 1.4-1.1.7.1 1.1-.3.9-1-.5-1.4-2.2-2.1-3.1-1.2zM170.6 273.1c.3.5 1.4.7 2.4.4 1-.3 2.1-.1 2.4.4.4.6 1.4.7 2.3.4 1.1-.4 1.4-.3.9.5-.4.7-.1 1.2.7 1.2 1 0 1.3-.7 1-1.9-.4-1.5-1.4-1.9-5.4-1.9-3-.1-4.7.3-4.3.9zM109.3 273.7c.8.7-1.1 3.3-2.4 3.3-.5 0-.9-.7-.9-1.5s-.5-1.5-1-1.5c-.7 0-.7.6 0 2 1.3 2.4 2.3 2.5 4 .5 1.4-1.7 5-2 5-.4 0 .5.4.8.9.4.6-.3 1.4.2 1.9 1.1.5.9 1.3 1.6 1.8 1.6 2.1.1 5.4 1.9 5.6 3 0 .7.2 1.7.3 2.3.2.5.3 1.9.4 2.9.1 2.4 1 1.6 1.6-1.3.3-1.6-.8-3.3-3.7-6.1-2.2-2.2-4.4-3.8-4.8-3.5-.4.2-1.6-.5-2.8-1.5-1.9-1.8-7.6-3-5.9-1.3zM150.5 274.1c-1 1.5.3 2.5 1.6 1.2.7-.7.7-1.3.1-1.7-.6-.3-1.4-.1-1.7.5zM154 274.5c0 .8.7 1.5 1.6 1.5.9 0 1.2-.5.8-1.2-.7-1 3.2-.8 7.2.4.7.1 1.3-.2 1.3-.7.1-.6-2.4-1.1-5.4-1.3-4.4-.2-5.5 0-5.5 1.3zM67 275.7c0 1 .4 2.4.9 3.1.5.9.8.3.7-1.7-.1-3.2-1.6-4.5-1.6-1.4zM213.1 284.2c0 .9-.4 2.5-.7 3.5-.5 1.4-.4 1.5.5.7.7-.7 1.1-2.2.8-3.5-.2-1.3-.5-1.6-.6-.7zM60 287.4c0 .2 1.8.6 3.9.8 2.2.2 3.7 0 3.5-.4-.5-.8-7.4-1.1-7.4-.4zM111.3 289.8c.1 1.9.5 3.6.9 3.8 1 .6.9-1.3-.2-4.6-.8-2.3-.8-2.2-.7.8zM57 291.1c-3.5 1.4-7 4.9-7 7.1 0 2.5 3.7 2.3 4.5-.3.8-2.4 8.7-6.1 11.3-5.2.9.3 3.2 2 4.9 3.6 3.9 3.6 5.2 3.1 2.1-.8-3.7-4.7-10.3-6.6-15.8-4.4zM95.2 291.2c-.7.7-1.2 1.8-1.2 2.5s-.4 1.3-1 1.3c-.5 0-1 .4-1 1 0 .5.8.6 1.8.3 1.6-.6 1.6-.6-.1 1.1-1.1 1.1-2.6 1.6-4 1.2-1.2-.3-2.9-.1-3.7.5-1 .6.3.9 4.5.7l6-.3.2-4.8c.2-5.2.2-5.2-1.5-3.5zM115.6 292.5c-.4 1.4-1.3 2.5-2.1 2.5-.9 0-1.5.9-1.5 2.2 0 1.9-.2 2-1 .8-.8-1.3-1-1.2-1 .2 0 2.5 2.1 2.3 2.7-.2.3-1.1 1.1-2 1.8-2 1.2 0 3.1-4.8 2.2-5.7-.3-.2-.7.8-1.1 2.2zM211.7 291.3c-.3.8-.1 2 .4 2.8.6 1 .9.7.9-1.4 0-2.9-.5-3.5-1.3-1.4zM157.1 291.8c-.1 1.8 3.4 6.3 4.2 5.5.4-.3 1.8.2 3.1 1.1 3.3 2.1 4.1 2 1.9-.3-1-1-3-2.1-4.4-2.4-1.4-.4-3.1-1.7-3.7-2.9-.6-1.3-1.1-1.7-1.1-1zM124.1 296.2c0 1.6.2 1.8.6.8.3-.8 1.1-1.8 1.7-2.2.7-.5.4-.8-.6-.8-1.2 0-1.8.7-1.7 2.2zM130.1 295.5c0 1.1.3 2.6.8 3.3.6 1 1.1.5 2-1.8.9-2.7.9-3-.3-2.1-1.1.9-1.5.9-1.9-.1-.3-.7-.6-.4-.6.7z"/>
        <path id="Detail1" class="curve-path" d="M93.9 110.7c-.1.5-.1 1.2 0 1.6.1.5-.3.6-.8.2-1.7-1-3 2.8-5.6 16.5-2.6 13.2-3 19.2-.5 8.3.7-3.2 2.9-10.6 5-16.6 2.1-5.9 3.4-10.7 2.9-10.7s-1 .3-1 .7zM98.8 111.8c-1.1.2-2.2 1.9-2.8 4.5-.6 2.3-2.1 6.4-3.4 9.2-2.6 5.4-2.9 6.7-2.6 10.5.1 2.3.2 2.3.9.5.5-1.1.6-2.7.3-3.5-.3-.8-.1-1.2.3-.7.8.7 9.8-19.1 9.3-20.3-.2-.3-1.1-.4-2-.2zM159 111.8c0 2.2 7.4 7.2 10.7 7.2 1.8 0 3.3-.5 3.3-1 0-.6-.6-1-1.4-1-.7 0-2.9-1.1-4.9-2.4-1.9-1.3-3.8-2.2-4.1-1.9-.3.3-1.2 0-2.1-.7-.9-.7-1.5-.8-1.5-.2zM182.2 119.3c-1.2 1.3-2.2 2.7-2.2 3.3 0 .5-1.8 1.9-4 3.2-2.2 1.2-4 2.7-4 3.3 0 .6-.5.7-1.2.3-.6-.4-.8-.3-.4.4 1.6 2.6-10.8 10-17.4 10.3-3.1.2-3.2.2-.7.6 5.5.9 12.8-2.6 19-9 6.1-6.3 7.9-6.9 5.2-1.8-.9 1.8-1.3 3.6-1 4.1.3.6.1 1-.6 1s-1 .3-.6.6c.3.4-.4 1.5-1.6 2.6-1.2 1.1-1.6 1.7-1 1.3 2.1-1 .2 2.8-2.5 4.9-1.3 1-2.1 2.4-1.8 3.2.3.7 0 1.7-.7 2.1-.7.5-3.3 3.9-5.8 7.8-8.8 13.3-9.3 14.5-6.1 14.5 1.3 0 1.4-.2.3-.9-1-.7-.8-1.2.9-2.4 1.4-.9 1.9-2 1.5-2.8-.5-.7-.4-1 .2-.6.6.4 1.6-.6 2.2-2.1 1.8-4.1 6.3-10.2 7-9.7.4.2 3.3-1.9 6.5-4.6 8.3-7.1 13.7-10 19.9-10.6l5.4-.5-4.1-3.7c-4.7-4.1-7.9-6.1-10.1-6.1-1.8 0-1.8-.2 0 4.9 1.2 3.4 1.2 4.1.1 4.1-.8 0-4.8 3.5-9 7.7-8.1 8.3-9.7 8.5-4.3.7 1.9-2.7 4.8-7.7 6.7-11.2 1.8-3.4 3.7-6.2 4.1-6.2.5 0 .9-.6.9-1.4 0-.8.6-1.7 1.3-1.9.6-.3.2-.6-1-.6-3-.1-2.9-.9.4-4.3 1.5-1.5 2.2-2.8 1.7-2.8-.6 0-2 1-3.2 2.3zM117 119.7c0 .6-1.2 2.1-2.7 3.2-2.1 1.5-2.4 2-1.1 2.1.9 0 1.9-.6 2.2-1.3.3-.8.9-.6 2 .7 1.6 2 1.6 2 1.7 0 .1-1 .1-2.2 0-2.7 0-.4.8-.7 1.9-.7 1.1 0 2-.6 2-1.4 0-.9-1.1-1.3-3-1.2-1.6 0-3 .6-3 1.3z"/>

        <path id="Detail2" class="curve-path" d="M187.8 145.9c-7.3 2.9-18.4 11.4-17.2 13.2.2.4-.4 1.3-1.5 1.8-1 .6-3.9 5-6.5 9.8-2.5 4.9-5.5 10.2-6.6 11.9l-2 3.1 2.5-.5c1.4-.2 2.5-1.1 2.5-2.1 0-.9 2-3.5 4.5-5.9 3.5-3.3 5.1-4.2 8-4.2 3.3 0 3.5-.2 2.1-1.5-1.4-1.4-1.9-1.4-4.4-.1l-2.8 1.5 1.6-4.7c2.6-7.3 3.1-8.2 4.2-7.6.5.3.4 1.1-.3 2-.6.8-.8 1.4-.4 1.4s.1.7-.6 1.7c-1.3 1.5-1.2 1.5.9.4 2.2-1.2 13.8-4.4 19.2-5.4 1.4-.3-.3-.3-3.7-.1-3.4.3-8.1 1.1-10.4 1.9-5.3 1.9-6 1.3-2-1.6 1.7-1.2 2.7-2.7 2.4-3.2-.3-.6-.1-.7.4-.4.6.4 3.1-.2 5.5-1.2 5-2.3 4.4-2.8-.8-.6-1.9.8-3.2 1-2.9.5.9-1.5-.8-1.2-3.3.6-1.2.8-1.9 2-1.6 2.6.4.7.2.8-.4.4-2-1.2-.1-3.4 6.7-7.5 9.8-5.8 14.3-7.4 20-6.9 2.7.1 4.7 0 4.4-.5-.9-1.4-12.8-.6-17.5 1.2zM208.2 148c.6 2.3 1.3 3.9 1.5 3.6.7-.7-.7-6.5-1.7-7.1-.4-.3-.3 1.3.2 3.5zM102.9 150.2c-.4 6.1-.8 9-1.3 10.4-1.1 2.9.4 1.3 2-2.2 1.5-3 1.5-3.7.3-4.5-1.1-.7-1-.9.5-.9s1.6-.3.6-1.5-.9-1.5.6-1.5c1.6 0 1.7-.2.4-1-2.3-1.5-3-1.2-3.1 1.2z"/>
        <path id="Detail2" class="curve-path" d="M198.3 159.1c-1.2.5-.7.8 1.9.8 2 .1 4-.3 4.3-.9.7-1.1-3.3-1-6.2.1zM113.3 162.5c0 1.4.5 2.5 1.1 2.5.6 0 .4.5-.4 1-1.2.8-1.2 1-.1 1 1.1 0 1.1.3.1 1.5-.9 1-.9 1.5-.1 1.5 1.2 0 1.3-.4 1.4-3.5 0-4.3-.3-6.5-1.2-6.5-.5 0-.8 1.1-.8 2.5zM109.6 165.3c-.7 1.9-1.4 5.1-1.5 7.3 0 2.1-.2 4.8-.5 5.9-.4 1.8-.9 7.4-2.1 23-.3 3.3-.8 7.6-1.1 9.5-.4 2.5-.3 3.1.5 2 1.6-2.4 2.2-.6 1.2 3.9-.5 2.5-.5 4.1 0 4.1 1.4 0 1.7-1.5 2.3-14.3.3-6.5 1-16 1.6-21 1.1-10.9 1.9-23.7 1.4-23.7-.2 0-1 1.5-1.8 3.3zM196.5 164.5c-3.3.6-9.2 1.8-13 2.4-7.1 1.2-10.4 2.5-9.3 3.6 1.1 1.2 32-5.4 31.2-6.7-.6-1-1.3-.9-8.9.7zM210.3 164.6c.3.4.2 1.5-.4 2.5-.8 1.5-.6 1.7.6 1.3 1.3-.5 1.5-.1 1 2.4-.3 1.8 0 3.4.7 3.8.8.5.9.2.5-.9-.3-1-.3-1.7.2-1.7s.9-1.1.9-2.5c0-1.3-.6-2.3-1.2-2.2-.6.1-1-.6-.8-1.6.2-.9-.3-1.7-.9-1.7-.7 0-.9.3-.6.6zM175.6 166.6c-7.1 2.2-5.1 2.6 2.4.4 3.6-1 5.6-1.9 4.5-1.9-1.1 0-4.2.7-6.9 1.5zM127.4 168.4c-1.2 2.5.3 3.2 2.4 1 .8-.9.8-1.5-.1-2.2-.9-.8-1.5-.4-2.3 1.2zM73.7 173.7c-.4.3-.7 1.8-.6 3.2.1 2.6.1 2.5 1-.3.9-3.1.7-4.1-.4-2.9zM174.6 174.9c1.4 1.3 10.4 3 10.4 1.9 0-.5 1.6-.6 3.5-.2 1.9.3 4.1.2 4.8-.4.6-.5 2.2-.8 3.4-.7 1.2.1 2-.2 1.7-.7-.3-.4-6-.8-12.7-.8-7.1 0-11.7.4-11.1.9z"/>
        <path class="curve-path" d="M187.2 124c.2.8 4.2 4.6 8.9 8.4 9.5 7.9 7.9 5.5-2.5-3.8-3.8-3.3-6.7-5.4-6.4-4.6zM111 128.5c-1.1 1.3-1.1 1.8 0 2.8 1 .9 1.1.9.5-.2-.4-.8-.2-1.7.6-2.2.7-.4 1.1-1.1.8-1.4-.4-.3-1.2.2-1.9 1zM116.7 127.7c-.4.3-.7 1.4-.7 2.3 0 1-.6 2.3-1.4 2.9-1.4 1.2-2.8 7.1-1.6 7.1 1.3 0 6-8.3 6-10.6 0-2.3-1-3.1-2.3-1.7zM117 138.6c-.6 1.4-1.5 3.4-2.1 4.6-.9 1.7-.8 1.9.8 1.6 1.3-.2 2-1.5 2.4-4.6.6-4.8.3-5.3-1.1-1.6zM192 140.9c-3.6.9-8.1 2.7-10 3.9-4.6 2.9-3.1 2.8 4.8-.4 4.8-1.9 7.8-2.5 11.8-2.2 5 .3 5.2.2 3.7-1.5-1.9-2.1-2.1-2-10.3.2zM105.6 145.2c.3.4 0 .8-.6.8s-.8.4-.5 1c1 1.6 5.2 1.1 5.9-.6.4-.9.4-1.9.1-2.2-.3-.3-.5 0-.5.6 0 .7-.5 1.2-1.1 1.2-.5 0-.8-.4-.4-.9.3-.6-.3-.9-1.4-.8-1.1 0-1.7.5-1.5.9zM128.5 144.7c-9.7 1.1-17.4 2.8-16.6 3.6.5.5.7 1.6.3 2.5-.4 1.2-.1 1.4 1.2.9 1-.4 2-.7 2.2-.7.3 0 .2-.5-.1-1-.4-.6.5-1 2-1 1.4 0 2.4.4 2.1.9-.4.5.3.7 1.4.4 1.1-.3 1.7-.9 1.5-1.4-.3-.4 1-.6 2.9-.4 2.4.3 3.8 0 4.3-1 .7-1.3 1.2-1.3 3.6 0 2.6 1.3 2.7 1.3 2.7-1.1 0-2.5-.3-2.6-7.5-1.7z"/>
        <path class="curve-path" d="M184.2 194c.7 1.1 1.8 2.2 2.5 2.5.9.3.8-.4-.3-2-1.9-2.9-4-3.4-2.2-.5zM138.9 196.9c-2.4 1.5-5.5 4-6.9 5.5l-2.5 2.8 2.8-1.3c1.5-.7 2.5-1.4 2.2-1.7-.3-.3 1.8-2 4.5-3.9 4.3-2.9 5.8-4.3 4.7-4.3-.2 0-2.3 1.3-4.8 2.9zM170 194.9c0 1.2 4.2 4.7 7.7 6.5 1.9 1 3.9 3 4.7 5 2.1 5 3.6 5.4 3.6.9.1-3.3.2-3.6 1.3-2.2 1.2 1.6 1.5 1.6 4.2.1l3-1.6-4-.6c-2.2-.4-6.5-1.9-9.5-3.5-7.9-4.2-11-5.5-11-4.6zM141.7 200c-.8 1.1-1.7 1.7-2.2 1.2-.5-.4-.5-.1-.1.5.4.7.3 1.3-.2 1.3-.4 0-2.3 1.3-4.2 3-1.8 1.6-3.6 2.8-3.9 2.5-.4-.2-.7.5-.7 1.6 0 1.8.2 1.8 1.2.5.6-.9 1.6-1.6 2.1-1.6 1 0 10.3-9.4 10.3-10.5 0-1-.9-.5-2.3 1.5zM96.6 207.4c-1 4.6-1.6 9-1.3 9.8.3.7.6.3.6-1 .1-1.2.8-2.5 1.6-2.8.8-.4 1.5-1 1.5-1.6 0-.5-.5-.6-1.2-.2-.7.5-.8.3-.3-.6.8-1.3 2-12 1.3-12-.2 0-1.2 3.8-2.2 8.4zM152.2 200.7c1.7 2.1 4.9 9 6.9 14.8.7 2.3 1.4 3.3 1.6 2.4.2-.9-.8-4.3-2.3-7.5-1.5-3.3-2.8-6.1-2.8-6.4-.4-1.5-3.2-5-4-5-.5 0-.2.8.6 1.7zM157 201c1.4 1.1 2.8 2 3.1 2 .4 0 1.9 1.9 3.5 4.2 1.9 2.9 2.9 3.8 3.2 2.7.6-3.1-1.8-6.8-5.7-8.9-5.1-2.5-7.4-2.6-4.1 0zM148 201.8c0 .5.8 2 1.9 3.3 1 1.3 2.3 3.5 3 4.9l1.2 2.5-2-2.5c-1.1-1.4-2.1-2.3-2.1-2 0 1.1 3.9 10.4 4 9.5.1-.6.5-.1 1 1 1.6 3.8 1.1 13.4-1 17.4-2.3 4.6-10.5 11.5-17.8 14.8-4.9 2.3-5.4 2.4-7.7.9-1.3-.9-3.5-1.6-4.7-1.6-4.1 0-6.9-1.2-6.4-2.6.3-.8.1-1.4-.5-1.4s-.8-.7-.5-1.7c.6-1.5.4-1.5-1.4.2-2.7 2.4-2.5 4.6.5 7.5 2.2 2 3.1 2.2 8.5 1.7 5.9-.5 6.1-.4 4.5 1.3-1.2 1.3-1.3 2-.5 2.5.7.4 1.6.2 2-.5.5-.8 1.1-.3 1.7 1.6l.9 2.7 1.7-3.5c1-2.2 3-4.2 5.1-5.2 1.9-.9 3.6-2 3.8-2.4.2-.4 2.7-2.5 5.6-4.6 9.3-6.7 11.9-15.7 8.3-27.9-2.6-8.5-6.1-15.9-7.8-16.5-.7-.2-1.3.1-1.3.6zM58.5 202.9c-.3.6-1.3.7-2.2.4-1.1-.4-1.4-.2-.9.5.4.6 2.1 1.6 3.9 2.2 3.1 1 3.1 1-.7.4-4.2-.6-5.6.4-5.6 4.2 0 1.6.6 2.1 2.8 2.2 1.5 0 4.2.2 6 .5 3.8.4 4 .2 1.1-1.4-1.5-.8-1.9-.8-1.5 0 1 1.5.1 1.4-3.3-.4-1.6-.8-3.1-1.2-3.5-1-.3.3-.3.1.1-.4.5-.4 2.3-1.1 4.1-1.5 2.4-.4 3.4-.2 3.9.9.4 1.2.8 1.3 1.9.4 1.2-.9 1.3-.9.8.4-.3 1 .3 1.9 1.8 2.7 2.2 1.1 2.2 1 .4-.4-2.8-2.3-1.2-3.2 2-1.2 1.4 1 2.8 1.5 3.1 1.3.6-.6-7.2-5.7-8.6-5.7-.5 0-1.9-1.1-2.9-2.5-1.1-1.4-2.3-2.1-2.7-1.6zM136.4 209.5c-4.2 4.2-7.4 7.8-7.2 8.1.3.2 2.1-1 4-2.8 2-1.8 4.2-3.4 4.9-3.6.8-.2 2.1-1 2.9-1.9 1.1-1.2.8-1.1-1.2.2-4.2 2.6-3.4.6 1.5-3.7 2.3-2 3.9-3.8 3.5-3.8-.4 0-4.1 3.4-8.4 7.5zM68.5 205.4c2.7 2.4 9.4 5.1 10.3 4.2.3-.4-9.8-5.6-12.3-6.4-.5-.2.4.8 2 2.2z"/>
        <!-- Extra details -->
        <!-- <path class="curve-path" d="M168 32.4c0 2.4 1.7 2.8 2.3.6.3-1.3 0-2-.9-2-.8 0-1.4.6-1.4 1.4zM172.5 34.9c1 5.1 5.3 9.5 9.5 9.7 2.6.1 4.9-2 3.5-3.4-.3-.3-.5.1-.5.9-.1 1.2-.3 1.1-1.3-.1-1.8-2.2-9.9-9-10.8-9-.4 0-.6.9-.4 1.9zm4.4 3c2.8 3.9 2.7 5.1-.1 1.5-1.2-1.6-2.7-3.2-3.3-3.6-.6-.5-.6-.8.2-.8.6 0 2.1 1.3 3.2 2.9z"/> -->
        <!-- <path class="curve-path" d="M181.7 103c.5 2.8.4 3.2-1 2.7-.9-.3-1.9-.2-2.2.2-.3.5.2 1.1 1 1.5 1.8.7 5.6 6.7 4.9 7.8-.9 1.4 3.1-.5 4.2-2.1 1.3-1.7.7-4.4-.7-3.5-1.6 1-3.9-1.7-3.9-4.6 0-1.5-.7-3.3-1.5-4-1.3-1.1-1.4-.8-.8 2zM192.5 105.1c-1 3 0 3.3 1.3.4.6-1.4.7-2.5.2-2.5-.5 0-1.2.9-1.5 2.1zM102.8 104.7c1.2.2 3 .2 4 0 .9-.3-.1-.5-2.3-.4-2.2 0-3 .2-1.7.4zM115.3 111.1c.6 4.7 1.3 5.7 2.9 4.1.8-.8.6-2-.6-4.6-2.2-4.7-3-4.5-2.3.5zM102.2 114.3c-1.2 3.2-2.2 6.1-2.2 6.4 0 .4-2 5-4.4 10.2-2.5 5.3-4.8 10.9-5.2 12.6-1 4.4 10.3-17.8 12.7-25.1 2.8-8.3 2-11.8-.9-4.1zM108.1 113.6c-.1 5-1.9 10.4-3.4 10.4-.5 0-.5.5-.2 1 .3.6-.1 1.3-.9 1.6-.9.3-1.3 1-1 1.5.3.5-.2 1.6-1.1 2.5-.9.9-1.4 2.3-1.1 3.1.3.8.2 1.2-.3.9-1.1-.7-5.6 6.1-8 12.3-2 5-3.7 12.9-4.5 21.5-.6 6.6 1.1 4.5 2.4-2.9.6-3.3 2.5-10.9 4.2-16.9 2.8-9.4 3.6-11.1 6.4-12.9 2.8-1.9 6.2-7.9 5.6-10-.1-.4.3-.7.9-.7.5 0 .8-.4.5-.9-.4-.5-.3-1.1.1-1.3 1.2-.5 4.3-7.6 4.3-9.8 0-1.1-.6-2-1.4-2-.8 0-1.7-.6-1.9-1.3-.3-.6-.6 1.1-.6 3.9z"/> -->
        <!-- <path class="curve-path" d="M167.2 175.9c-.9.5-.1 1 2.6 1.3 2.1.3 7.3 2.2 11.5 4.2 5.1 2.4 9.1 3.6 11.9 3.6 6.9 0 15.2-2.9 13.5-4.7-.5-.4-1.1-.2-1.5.4-.4.6-3.8 1.3-7.5 1.7-5.5.5-7.9.2-12.5-1.5-3.1-1.2-6.7-2.3-7.9-2.6-1.2-.3-2.8-1.1-3.4-1.9-1.3-1.6-4.7-1.8-6.7-.5zM76.7 177.7c-.2.5-.8 2.5-1.1 4.6-.5 2.9-.4 3.7.4 3.2.7-.4 1.5-.3 1.9.3.4.6.8-.9.9-3.3.1-4-1-6.7-2.1-4.8zM208 179c2.5 2.2 3.5 2.6 2.5 1-.3-.6-.1-1 .5-1s.8-.5.4-1.1c-.5-.8-.9-.8-1.4.1-.5.9-.9.9-1.4.1-.4-.6-1.2-1.1-1.8-1.1-.6 0-.1.9 1.2 2zM121.3 178.7c.4.3.2 1.2-.4 1.9-.6.7-.8 1.8-.4 2.4.4.7 1.2.1 2.1-1.5 1.8-3.4 1.8-3.5-.3-3.5-.9 0-1.3.3-1 .7zM130 182c-1.3 1.6-3.3 3.1-4.5 3.3-2 .4-2 .4.1.6 2.3.1 5.7-2.5 6.7-5.2.9-2.3.6-2.2-2.3 1.3zM166.3 180c-2.4.3-4.6 1-5 1.5-.5.4.6.5 2.4.2 1.7-.4 5.8 0 9 .8 9 2.3 9.3 2.4 9.3 1.6 0-.9-6.2-3.7-9.5-4.4-1.1-.2-3.9-.1-6.2.3zM63 185.6c0 1.1.7 2.9 1.6 4 1.4 1.8 1.5 1.8.8-.6-.3-1.4-1-3.2-1.5-4-.7-1.2-.8-1.1-.9.6zM166 184.4c0 1.2 4.7 3 7.3 2.8 1.6-.2 2.6.2 2.3.7-.4.5.3.7 1.6.3 1.6-.4 1.9-.2 1.3.8-.6 1-.1 1.2 2.3.7 2.6-.5 3.5-.2 5.1 1.9 1.1 1.4 2.3 3.4 2.6 4.4.3 1.1 1.4 2.1 2.3 2.4.9.2 2.7.7 4 1.1 3.6 1 2.6-1-3.7-7.4l-5.8-5.9-7.9-.7c-4.4-.4-8.7-.9-9.6-1.1-1-.3-1.8-.3-1.8 0zM204.5 186.2c-3.7 1.5-6.4 1.9-10.3 1.5-5.8-.6-6 .2-.8 2.7 4.6 2.2 6.6 2 9.9-.8 1.6-1.3 3.8-3.1 5-4 2.8-1.9 2.3-1.8-3.8.6zM134.1 187c-1.3 1.1-1.9 2-1.5 2 .5.1-.4.7-2.1 1.5-2 .9-2.4 1.4-1.2 1.4.9.1 3.4-1.5 5.5-3.4 3.9-3.6 3.4-4.8-.7-1.5zM160 185.9c0 .5 3.9 2.8 8.8 5.1 4.8 2.3 10 4.9 11.5 5.7 3.8 2 4.3 1.2.9-1.9-1.5-1.4-4.9-3.1-7.7-3.8-2.7-.7-6.1-2.4-7.4-3.7-2.3-2.3-6.1-3.1-6.1-1.4zM60 191.1c0 2.2-.4 4.8-1 5.8-.7 1.4-.3 2.4 1.6 4.2l2.6 2.4-1.3-2.8c-1.5-3.3-.3-4.9 1.7-2.2.8 1.1 2 2 2.7 2 .7.1 2 .5 2.9.9 3.4 1.5 4.2-.1 1-1.9-2.3-1.4-3-2.4-2.6-3.7.4-1.3.1-1.6-1.1-1.2-1.1.5-2-.5-3.3-3.5-2.2-5.2-3.2-5.2-3.2 0zM137.4 191.8c-6 6-8.7 9.3-8.1 9.8.2.3 1.8-1.1 3.5-3 1.6-1.9 3.4-3.2 3.8-2.8.4.4.4.2.1-.5-.4-.6.3-2 1.5-3 1.3-1 2.9-2.6 3.7-3.6 2.6-3.3.3-1.7-4.5 3.1zM153.7 187.7c-1.1 1-.8 2.5.3 1.8 1.8-1.1 5.8 2.3 6.5 5.4.7 3.3 3.5 6.4 3.5 3.9 0-3-2.3-8.3-4.2-10.1-2.1-1.7-4.9-2.2-6.1-1zM164.9 193.7c1.9 3.2 4.4 9.8 4.5 11.8.1 1.1.3 3.4.4 5.1.1 1.8.7 3.1 1.6 3.1 3.5 0-2.2-20.8-5.9-21.5-1.3-.3-1.4 0-.6 1.5z"/> -->
        <!-- <path class="curve-path" d="M137.8 214.7c-4 3.7-7.5 7.1-7.7 7.6-.7 1.7 6-2.7 8.5-5.6 1.3-1.5 2.5-2.6 2.8-2.5.2.2.8-.1 1.3-.6s.3-.6-.4-.2c-.7.4-1.3.2-1.3-.3 0-.6.6-1.1 1.3-1.1.8 0 2.2-.9 3.2-2 4.1-4.6-.9-1.5-7.7 4.7zM160 209.4c0 .7 1.1 2.3 2.4 3.6 1.4 1.2 2.8 3.7 3.1 5.4 1.1 5.3 1.6 6.6 2.6 6.6.9 0 .5-7.1-.7-11-.6-2.1-7.4-6.3-7.4-4.6zM113.1 212.1c.5 1.1 1.5 1.7 2 1.3 1.4-.9.6-2.7-1.4-3-1.4-.2-1.5.1-.6 1.7zM143.5 215.3c-9.9 7.9-15.5 13.5-14.1 14 .8.3 2.2-.3 3.1-1.3 1-1.1 2.2-1.7 2.8-1.3.6.3.7.1.3-.5-.8-1.3 5.6-8.2 7.6-8.2.6 0-.3 1.6-2.2 3.5-1.9 1.9-2.9 3.5-2.3 3.5 1.9 0 5.3-3.4 5.6-5.7.2-1.3 1.4-3.4 2.7-4.8 3.7-4 1.9-3.6-3.5.8zM178.7 213.1c2.2 2.3 4.3 1.8 4.3-.9 0-1.5-.2-1.5-1-.2-.7 1.2-1.2 1.2-2.2.2-.6-.6-1.7-1.2-2.2-1.2-.6 0-.1 1 1.1 2.1zM58.4 214.7c.7.7 13.7 5.2 15.1 5.2.6 0-.6-.7-2.5-1.5-3.9-1.8-13.5-4.6-12.6-3.7zM51.4 216.1c-.9 1.5.5 2.7 2.6 2.2 3.1-.8 3.3-2 .5-2.6-1.4-.2-2.8 0-3.1.4zM170 217.2c0 1.3.5 3 1 3.8.8 1.2 1 1.2 1.1-.5 0-2 0-2 .9 0s.9 2 .9 0-2-5.5-3.3-5.5c-.3 0-.6 1-.6 2.2zM151.3 221.7c.2 3.4 0 6-.5 5.7-.4-.3-.5.2-.2 1.1.7 1.7-2.6 7.1-7.6 12.5-1.8 1.9-4.5 4.8-5.9 6.4-2.5 2.8-2.5 2.8-.3 1.6 11-5.7 19.2-22.7 15.1-31.5-.6-1.4-.8-.2-.6 4.2zM203.1 216.9c-.7.5-1.2 1.1-1.2 1.5.3 2-.1 2.5-1.6 1.9-1-.4-1.4-.2-1 .4.4.6-.3 1.4-1.6 1.7-2.1.7-2.1.7-.2 1.6 1.9.8 1.9.9.1.9-1.1.1-1.6.4-1.3.8.7.6-3.8 5.3-5.2 5.3-.5 0-1.1-1.4-1.5-3.2-1-4.9-1.8-2.7-2.2 6-.3 7.4-.1 8.1 2.1 10.2 1.7 1.6 2.5 1.9 2.5 1 0-.8 3-7.4 6.6-14.7 3.7-7.4 6.5-13.6 6.3-13.8-.3-.2-1 0-1.8.4zM61 218.4c.8.8 3.5 2.1 5.9 3 5.6 1.9 4.1.4-2.4-2.4-3.5-1.5-4.5-1.7-3.5-.6zM175.6 218.4c.3.9 1.1 1.6 1.6 1.6 1.3 0 .5-2.3-1-2.8-.7-.2-1 .2-.6 1.2zM53.8 219.7c-3.5.9-1.7 1.8 2.7 1.5 2.5-.2 4.2-.8 3.9-1.3-.5-.9-3.6-1-6.6-.2z"/> -->
        
        <!-- <path id="Detail2" class="curve-path" d="M181.7 103c.5 2.8.4 3.2-1 2.7-.9-.3-1.9-.2-2.2.2-.3.5.2 1.1 1 1.5 1.8.7 5.6 6.7 4.9 7.8-.9 1.4 3.1-.5 4.2-2.1 1.3-1.7.7-4.4-.7-3.5-1.6 1-3.9-1.7-3.9-4.6 0-1.5-.7-3.3-1.5-4-1.3-1.1-1.4-.8-.8 2zM192.5 105.1c-1 3 0 3.3 1.3.4.6-1.4.7-2.5.2-2.5-.5 0-1.2.9-1.5 2.1zM102.8 104.7c1.2.2 3 .2 4"/> -->
    </g>
</svg>
